<svg width="40" height="43" viewBox="0 0 40 43" fill="none" xmlns="http://www.w3.org/2000/svg">
<path d="M5.49744 7.24414C4.62964 7.24414 3.92676 8.00692 3.92676 8.94869V32.8123C3.92676 33.7541 4.62964 34.5169 5.49744 34.5169H24.7383C24.002 34.5169 24.7686 34.6223 24.7383 34.5169C22.7749 26.8464 29.4503 24.2896 30.6283 24.7157L28.5423 22.6516C27.1828 21.2948 25.0907 21.2981 23.7336 22.6583L17.8328 28.7757L14.3248 25.3033C12.9945 24.0684 11.0328 24.0716 9.70637 25.3117L4.7121 29.9825V8.94869C4.7121 8.47823 5.06393 8.09641 5.49744 8.09641H33.7697C34.2032 8.09641 34.555 8.47823 34.555 8.94869V25.3816C34.8315 25.5401 35.0922 25.6049 35.3404 25.8077V8.94869C35.3404 8.00692 34.6375 7.24414 33.7697 7.24414H5.49744ZM14.1393 12.9387C12.8042 12.9387 11.7219 14.1133 11.7219 15.5621C11.7219 17.011 12.805 18.1864 14.1393 18.1855C15.4743 18.1855 16.5566 17.011 16.5566 15.5621C16.5566 14.1133 15.4743 12.9387 14.1393 12.9387ZM31.8063 26.8464C28.987 26.8464 26.7016 29.3265 26.7016 32.3862C26.7016 35.4458 28.987 37.926 31.8063 37.926C34.6257 37.926 36.9111 35.4458 36.9111 32.3862C36.9111 29.3265 34.6257 26.8464 31.8063 26.8464ZM31.8063 28.9771C32.0231 28.9771 32.199 29.168 32.199 29.4032V31.9601H34.555C34.7718 31.9601 34.9477 32.151 34.9477 32.3862C34.9477 32.6214 34.7718 32.8123 34.555 32.8123H32.199V35.3691C32.199 35.6044 32.0231 35.7953 31.8063 35.7953C31.5896 35.7953 31.4137 35.6044 31.4137 35.3691V32.8123H29.0576C28.8409 32.8123 28.665 32.6214 28.665 32.3862C28.665 32.151 28.8409 31.9601 29.0576 31.9601H31.4137V29.4032C31.4137 29.168 31.5896 28.9771 31.8063 28.9771Z" fill="#61876E" fill-opacity="0.49"/>
</svg>
