<svg width="400" height="400" viewBox="0 0 400 400" fill="none" xmlns="http://www.w3.org/2000/svg">
<rect x="100" y="200" width="100" height="100" fill="#EAE7B1"/>
<rect y="300" width="100" height="100" fill="#A6BB8D"/>
<rect x="249" y="149" width="102" height="102" fill="#A6BB8D"/>
<rect x="49" y="49" width="102" height="102" rx="51" fill="#61876E"/>
<path fill-rule="evenodd" clip-rule="evenodd" d="M100 300L200 300H300V400H249.99C249.997 399.667 250 399.334 250 399C250 371.386 227.614 349 200 349C172.386 349 150 371.386 150 399C150 399.334 150.003 399.667 150.01 400L100 400L100 300Z" fill="#3C6255"/>
<path fill-rule="evenodd" clip-rule="evenodd" d="M200 200L100 200L0 200L8.74228e-06 100L50.0098 100C50.0033 100.333 50 100.666 50 101C50 128.614 72.3858 151 100 151C127.614 151 150 128.614 150 101C150 100.666 149.997 100.333 149.99 100L200 100L200 200Z" fill="#A6BB8D"/>
<path fill-rule="evenodd" clip-rule="evenodd" d="M400 100L400 200L400 300L300 300L300 249.99C300.333 249.997 300.666 250 301 250C328.614 250 351 227.614 351 200C351 172.386 328.614 150 301 150C300.666 150 300.333 150.003 300 150.01L300 100L400 100Z" fill="#EAE7B1"/>
<path fill-rule="evenodd" clip-rule="evenodd" d="M200 400L249.99 400C249.997 399.664 250 399.328 250 398.99C250 371.376 227.614 348.5 200 348.5L200 348.51C199.674 348.503 199.347 348.5 199.02 348.5C171.947 348.5 150 370.447 150 397.52L150 400L200 400L200 400Z" fill="#EAE7B1"/>
<path d="M50 250L0 300L8.74228e-06 200L100 200L50 250Z" fill="#61876E"/>
<path d="M250 50L200 100L200 -8.74228e-06L300 0L250 50Z" fill="#61876E"/>
<path d="M50 250L100 200L100 300H0L50 250Z" fill="#3C6255"/>
<path d="M250 50L300 0V100L200 100L250 50Z" fill="#61876E"/>
<path d="M350 50L300 100L300 -8.74228e-06L400 0L350 50Z" fill="#A6BB8D"/>
<path d="M350 50L400 0V100L300 100L350 50Z" fill="#A6BB8D"/>
<path fill-rule="evenodd" clip-rule="evenodd" d="M400 300L300 300L300 400L350.01 400C350.003 399.667 350 399.334 350 399C350 371.386 372.386 349 400 349L400 300Z" fill="#A6BB8D"/>
<path fill-rule="evenodd" clip-rule="evenodd" d="M200 200L200 300L300 300L300 249.99C299.667 249.997 299.334 250 299 250C271.386 250 249 227.614 249 200L200 200Z" fill="#61876E"/>
<path fill-rule="evenodd" clip-rule="evenodd" d="M200 100L200 4.37114e-06L100 -4.37114e-06L100 50.0098C100.333 50.0033 100.666 50 101 50C128.614 50 151 72.3858 151 100L200 100Z" fill="#EAE7B1"/>
<path fill-rule="evenodd" clip-rule="evenodd" d="M200 200L200 100L300 100L300 150.01C299.667 150.003 299.334 150 299 150C271.386 150 249 172.386 249 200L200 200Z" fill="#3C6255"/>
<path fill-rule="evenodd" clip-rule="evenodd" d="M4.37115e-08 100L0 4.37114e-06L100 4.37114e-06L100 50.0098C99.6675 50.0033 99.3341 50 99 50C71.3858 50 49 72.3858 49 100L4.37115e-08 100Z" fill="#3C6255"/>
<path fill-rule="evenodd" clip-rule="evenodd" d="M399.02 349C399.347 349 399.674 349.003 400 349.01L400 400L350 400L350 398.02C350 370.947 371.947 349 399.02 349Z" fill="#61876E"/>
</svg>
