<svg width="45" height="45" viewBox="0 0 45 45" fill="none" xmlns="http://www.w3.org/2000/svg">
<path d="M30.8333 27.7912C29.7778 27.7912 28.8333 28.2129 28.1111 28.8735L18.2083 23.0402C18.2778 22.7169 18.3333 22.3936 18.3333 22.0562C18.3333 21.7189 18.2778 21.3956 18.2083 21.0723L28 15.2952C28.75 15.998 29.7361 16.4337 30.8333 16.4337C33.1389 16.4337 35 14.5502 35 12.2169C35 9.88353 33.1389 8 30.8333 8C28.5278 8 26.6667 9.88353 26.6667 12.2169C26.6667 12.5542 26.7222 12.8775 26.7917 13.2008L17 18.9779C16.25 18.2751 15.2639 17.8394 14.1667 17.8394C11.8611 17.8394 10 19.7229 10 22.0562C10 24.3896 11.8611 26.2731 14.1667 26.2731C15.2639 26.2731 16.25 25.8373 17 25.1345L26.8889 30.9819C26.8194 31.2771 26.7778 31.5863 26.7778 31.8956C26.7778 34.1586 28.5972 36 30.8333 36C33.0694 36 34.8889 34.1586 34.8889 31.8956C34.8889 29.6325 33.0694 27.7912 30.8333 27.7912Z" fill="black"/>
</svg>
